<svg xmlns="http://www.w3.org/2000/svg" xmlns:xlink="http://www.w3.org/1999/xlink" width="600" height="300" version="1.1" viewBox="0 0 600 300"><title>Artboard</title><defs><filter id="filter-1" width="214.6%" height="228.3%" x="-57.3%" y="-64.2%" filterUnits="objectBoundingBox"><feOffset dx="0" dy="8" in="SourceAlpha" result="shadowOffsetOuter1"/><feGaussianBlur in="shadowOffsetOuter1" result="shadowBlurOuter1" stdDeviation="16"/><feColorMatrix in="shadowBlurOuter1" result="shadowMatrixOuter1" type="matrix" values="0 0 0 0 0 0 0 0 0 0 0 0 0 0 0 0 0 0 0.1 0"/><feMerge><feMergeNode in="shadowMatrixOuter1"/><feMergeNode in="SourceGraphic"/></feMerge></filter><linearGradient id="linearGradient-2" x1="24.565%" x2="83.238%" y1="22.02%" y2="86.518%"><stop offset="0%" stop-color="#FFA936"/><stop offset="41.12%" stop-color="#FF8548"/><stop offset="77.81%" stop-color="#FF6C54"/><stop offset="100%" stop-color="#FF6359"/></linearGradient><linearGradient id="linearGradient-3" x1="52.164%" x2="48.183%" y1="47.311%" y2="50.515%"><stop offset="0%" stop-color="#F82814" stop-opacity="0"/><stop offset="100%" stop-color="#C0272D"/></linearGradient><linearGradient id="linearGradient-4" x1="17.693%" x2="92.209%" y1="30.221%" y2="75.839%"><stop offset="0%" stop-color="#CDEC7A"/><stop offset="21.57%" stop-color="#B0E995"/><stop offset="56.13%" stop-color="#87E4BB"/><stop offset="83.47%" stop-color="#6EE1D2"/><stop offset="100%" stop-color="#65E0DB"/></linearGradient><linearGradient id="linearGradient-5" x1="64.844%" x2="-13.932%" y1="50%" y2="50%"><stop offset="0%" stop-color="#CDEC7A" stop-opacity="0"/><stop offset="23.54%" stop-color="#9AD57D" stop-opacity=".235"/><stop offset="60.35%" stop-color="#51B482" stop-opacity=".604"/><stop offset="86.79%" stop-color="#239F85" stop-opacity=".868"/><stop offset="100%" stop-color="#119786"/></linearGradient><linearGradient id="linearGradient-6" x1="50%" x2="50%" y1="55.566%" y2="-9.612%"><stop offset="0%" stop-color="#CDEC7A" stop-opacity="0"/><stop offset="23.54%" stop-color="#9AD57D" stop-opacity=".235"/><stop offset="60.35%" stop-color="#51B482" stop-opacity=".604"/><stop offset="86.79%" stop-color="#239F85" stop-opacity=".868"/><stop offset="100%" stop-color="#119786"/></linearGradient><linearGradient id="linearGradient-7" x1="19.121%" x2="90.315%" y1="23.61%" y2="84.454%"><stop offset="0%" stop-color="#F8F6FB"/><stop offset="100%" stop-color="#EFDCFB"/></linearGradient><linearGradient id="linearGradient-8" x1="19.511%" x2="102.476%" y1="16.101%" y2="108.347%"><stop offset="0%" stop-color="#18CEFB"/><stop offset="29.69%" stop-color="#2BB9F9"/><stop offset="73.45%" stop-color="#42A0F7"/><stop offset="100%" stop-color="#4A97F6"/></linearGradient><linearGradient id="linearGradient-9" x1="17.508%" x2="82.493%" y1="41.26%" y2="98.189%"><stop offset="0%" stop-color="#CDEC7A"/><stop offset="21.54%" stop-color="#B0E995" stop-opacity=".784"/><stop offset="56.04%" stop-color="#87E4BB" stop-opacity=".439"/><stop offset="83.34%" stop-color="#6EE1D2" stop-opacity=".165"/><stop offset="99.85%" stop-color="#65E0DB" stop-opacity="0"/></linearGradient><linearGradient id="linearGradient-10" x1="31.46%" x2="83.27%" y1="46.627%" y2="93.32%"><stop offset="0%" stop-color="#CDEC7A"/><stop offset="21.57%" stop-color="#B0E995"/><stop offset="56.13%" stop-color="#87E4BB"/><stop offset="83.47%" stop-color="#6EE1D2"/><stop offset="100%" stop-color="#65E0DB"/></linearGradient><linearGradient id="linearGradient-11" x1="25.157%" x2="92.757%" y1="17.681%" y2="105.629%"><stop offset="0%" stop-color="#FFD945"/><stop offset="30.43%" stop-color="#FFCD3E"/><stop offset="85.58%" stop-color="#FFAD2B"/><stop offset="100%" stop-color="#FFA325"/></linearGradient></defs><g id="Artboard" fill="none" fill-rule="evenodd" stroke="none" stroke-width="1"><rect width="600" height="300" x="0" y="0" fill="#F2F2F2"/><g id="e45d2469cdeaf" fill-rule="nonzero" filter="url(#filter-1)" transform="translate(233.000000, 90.000000)"><path id="Path" fill="url(#linearGradient-2)" d="M111.599112,116.203177 L10.4688701,104.994802 C5.60654011,104.456053 2.10192974,100.077577 2.6406783,95.2152475 L11.9358555,11.3469178 C12.4748654,6.48458789 16.8533412,2.97971609 21.7154097,3.51872605 L122.845651,14.727101 C127.707981,15.266111 131.212853,19.6445867 130.673843,24.5066553 L121.378666,108.374985 C120.839917,113.237315 116.461441,116.742187 111.599112,116.203177 Z"/><path id="Path" fill="url(#linearGradient-3)" d="M130.673843,24.5069167 L127.008994,57.5830982 L118.863199,14.2861167 L122.847219,14.7273624 C127.707981,15.2653268 131.212068,19.6432797 130.673843,24.5069167 Z"/><path id="Path" fill="url(#linearGradient-4)" d="M126.093042,100.623907 L26.097545,119.435407 C21.289848,120.339856 16.6591198,117.17559 15.7546705,112.367893 L0.154226905,29.4406092 C-0.750222403,24.6329122 2.41404317,20.002184 7.22174021,19.0977347 L107.217238,0.28623468 C112.024934,-0.618214627 116.655663,2.54605094 117.560112,7.35374798 L133.160556,90.2810323 C134.065005,95.0889907 130.90074,99.7197187 126.093042,100.623907 Z"/><path id="Path" fill="url(#linearGradient-5)" d="M119.694717,18.7022342 L119.694717,101.827661 L126.092781,100.623907 C130.900478,99.7194576 134.064744,95.0887291 133.160294,90.2810323 L119.694717,18.7022342 Z"/><path id="Path" fill="url(#linearGradient-6)" d="M15.2789197,109.837526 L15.7549319,112.367893 C16.6593812,117.17559 21.2901094,120.339856 26.0978064,119.435407 L77.1168509,109.837526 L15.2789197,109.837526 Z"/><g id="Group" transform="translate(0.000000, 8.103446)"><path id="Path" fill="url(#linearGradient-7)" d="M110.836865,102.251393 L9.08762434,102.251393 C4.19549463,102.251393 0.229771949,98.2856698 0.229771949,93.3935405 L0.229771949,9.01155648 C0.229771949,4.11942678 4.19549463,0.153704102 9.08762434,0.153704102 L110.836865,0.153704102 C115.728995,0.153704102 119.694717,4.11942678 119.694717,9.01155648 L119.694717,93.3935405 C119.694717,98.2856698 115.728995,102.251393 110.836865,102.251393 Z"/><path id="Path" fill="url(#linearGradient-8)" d="M102.542333,93.928368 L17.3824178,93.928368 C13.2880856,93.928368 9.96880891,90.6090912 9.96880891,86.5147589 L9.96880891,15.8905993 C9.96880891,11.7962671 13.2880856,8.47699037 17.3824178,8.47699037 L102.542333,8.47699037 C106.636665,8.47699037 109.955941,11.7962671 109.955941,15.8905993 L109.955941,86.5147589 C109.955941,90.6090912 106.636665,93.928368 102.542333,93.928368 Z"/><g id="Path"><path fill="url(#linearGradient-9)" d="M55.9579651,58.6391606 L7.45046654,58.6391606 C3.3553501,58.6391606 0.0345050026,55.3209298 0.0345050026,51.2260747 L0.0345050026,39.6486006 L12.341812,24.6891135 C16.4034691,19.7478403 23.9637243,19.7478403 28.0282567,24.6891135 L35.6912427,34.0054642 L55.9579651,58.6391606 Z" transform="translate(9.933259, 35.289206)"/><path fill="url(#linearGradient-10)" d="M100.023468,32.6098415 L100.023468,51.2260747 C100.023468,55.3211909 96.7026221,58.6391606 92.6075059,58.6391606 L15.4239975,58.6391606 L35.6909813,34.0054642 L60.588432,3.73961035 C64.6500888,-1.19878744 72.2132194,-1.19878744 76.2748766,3.73961035 L100.023468,32.6098415 Z" transform="translate(9.933259, 35.289206)"/></g><circle id="Oval" cx="35.871" cy="26.38" r="10.513" fill="url(#linearGradient-11)"/></g></g></g></svg>